<mxfile host="app.diagrams.net" agent="Mozilla/5.0 (Windows NT 10.0; Win64; x64) AppleWebKit/537.36 (KHTML, like Gecko) Chrome/133.0.0.0 Safari/537.36" version="26.0.16">
  <diagram name="第 1 页" id="rai6ZjkG1xXohnRj1gIq">
    <mxGraphModel dx="1221" dy="618" grid="1" gridSize="10" guides="1" tooltips="1" connect="1" arrows="1" fold="1" page="1" pageScale="1" pageWidth="827" pageHeight="1169" math="0" shadow="0">
      <root>
        <mxCell id="0" />
        <mxCell id="1" parent="0" />
        <mxCell id="mMuCkjXO4EwzCrePi19F-1" value="" style="endArrow=classic;html=1;rounded=0;entryX=0;entryY=0.5;entryDx=0;entryDy=0;" edge="1" parent="1" target="mMuCkjXO4EwzCrePi19F-6">
          <mxGeometry width="50" height="50" relative="1" as="geometry">
            <mxPoint x="185" y="355" as="sourcePoint" />
            <mxPoint x="415" y="320" as="targetPoint" />
          </mxGeometry>
        </mxCell>
        <mxCell id="mMuCkjXO4EwzCrePi19F-2" value="Validate Login User" style="text;html=1;align=center;verticalAlign=middle;resizable=0;points=[];autosize=1;strokeColor=none;fillColor=none;" vertex="1" parent="1">
          <mxGeometry x="90" y="320" width="130" height="30" as="geometry" />
        </mxCell>
        <mxCell id="mMuCkjXO4EwzCrePi19F-3" value="q1" style="shape=ellipse;html=1;dashed=0;whiteSpace=wrap;aspect=fixed;perimeter=ellipsePerimeter;" vertex="1" parent="1">
          <mxGeometry x="415" y="325" width="60" height="60" as="geometry" />
        </mxCell>
        <mxCell id="mMuCkjXO4EwzCrePi19F-4" style="edgeStyle=orthogonalEdgeStyle;rounded=0;orthogonalLoop=1;jettySize=auto;html=1;exitX=1;exitY=0.5;exitDx=0;exitDy=0;entryX=0;entryY=0.5;entryDx=0;entryDy=0;" edge="1" parent="1" source="mMuCkjXO4EwzCrePi19F-6" target="mMuCkjXO4EwzCrePi19F-3">
          <mxGeometry relative="1" as="geometry" />
        </mxCell>
        <mxCell id="mMuCkjXO4EwzCrePi19F-5" value="Enter correct username" style="edgeLabel;html=1;align=center;verticalAlign=middle;resizable=0;points=[];" vertex="1" connectable="0" parent="mMuCkjXO4EwzCrePi19F-4">
          <mxGeometry x="-0.1572" y="1" relative="1" as="geometry">
            <mxPoint x="6" y="-14" as="offset" />
          </mxGeometry>
        </mxCell>
        <mxCell id="mMuCkjXO4EwzCrePi19F-6" value="q0" style="ellipse;shape=doubleEllipse;html=1;dashed=0;whiteSpace=wrap;aspect=fixed;" vertex="1" parent="1">
          <mxGeometry x="225" y="325" width="60" height="60" as="geometry" />
        </mxCell>
        <mxCell id="mMuCkjXO4EwzCrePi19F-7" style="edgeStyle=orthogonalEdgeStyle;rounded=0;orthogonalLoop=1;jettySize=auto;html=1;exitX=0.5;exitY=1;exitDx=0;exitDy=0;entryX=0.5;entryY=0;entryDx=0;entryDy=0;" edge="1" parent="1" source="mMuCkjXO4EwzCrePi19F-9" target="mMuCkjXO4EwzCrePi19F-14">
          <mxGeometry relative="1" as="geometry" />
        </mxCell>
        <mxCell id="mMuCkjXO4EwzCrePi19F-8" value="Operate the remember me checkbox" style="edgeLabel;html=1;align=center;verticalAlign=middle;resizable=0;points=[];" vertex="1" connectable="0" parent="mMuCkjXO4EwzCrePi19F-7">
          <mxGeometry x="-0.4698" relative="1" as="geometry">
            <mxPoint y="22" as="offset" />
          </mxGeometry>
        </mxCell>
        <mxCell id="mMuCkjXO4EwzCrePi19F-9" value="q2" style="shape=ellipse;html=1;dashed=0;whiteSpace=wrap;aspect=fixed;perimeter=ellipsePerimeter;" vertex="1" parent="1">
          <mxGeometry x="645" y="325" width="60" height="60" as="geometry" />
        </mxCell>
        <mxCell id="mMuCkjXO4EwzCrePi19F-10" style="edgeStyle=orthogonalEdgeStyle;rounded=0;orthogonalLoop=1;jettySize=auto;html=1;exitX=1;exitY=0.5;exitDx=0;exitDy=0;entryX=0;entryY=0.5;entryDx=0;entryDy=0;" edge="1" parent="1" source="mMuCkjXO4EwzCrePi19F-3" target="mMuCkjXO4EwzCrePi19F-9">
          <mxGeometry relative="1" as="geometry">
            <mxPoint x="515.0000000000041" y="355" as="sourcePoint" />
          </mxGeometry>
        </mxCell>
        <mxCell id="mMuCkjXO4EwzCrePi19F-11" value="Enter correct password" style="edgeLabel;html=1;align=center;verticalAlign=middle;resizable=0;points=[];" vertex="1" connectable="0" parent="mMuCkjXO4EwzCrePi19F-10">
          <mxGeometry x="-0.1572" y="1" relative="1" as="geometry">
            <mxPoint x="6" y="-14" as="offset" />
          </mxGeometry>
        </mxCell>
        <mxCell id="mMuCkjXO4EwzCrePi19F-12" value="" style="edgeStyle=orthogonalEdgeStyle;rounded=0;orthogonalLoop=1;jettySize=auto;html=1;" edge="1" parent="1" source="mMuCkjXO4EwzCrePi19F-14" target="mMuCkjXO4EwzCrePi19F-19">
          <mxGeometry relative="1" as="geometry" />
        </mxCell>
        <mxCell id="mMuCkjXO4EwzCrePi19F-13" value="Verify the exist of the username" style="edgeLabel;html=1;align=center;verticalAlign=middle;resizable=0;points=[];" vertex="1" connectable="0" parent="mMuCkjXO4EwzCrePi19F-12">
          <mxGeometry x="-0.0832" y="1" relative="1" as="geometry">
            <mxPoint y="-11" as="offset" />
          </mxGeometry>
        </mxCell>
        <mxCell id="mMuCkjXO4EwzCrePi19F-14" value="q3" style="shape=ellipse;html=1;dashed=0;whiteSpace=wrap;aspect=fixed;perimeter=ellipsePerimeter;" vertex="1" parent="1">
          <mxGeometry x="645" y="470" width="60" height="60" as="geometry" />
        </mxCell>
        <mxCell id="mMuCkjXO4EwzCrePi19F-15" value="" style="edgeStyle=orthogonalEdgeStyle;rounded=0;orthogonalLoop=1;jettySize=auto;html=1;" edge="1" parent="1" source="mMuCkjXO4EwzCrePi19F-19" target="mMuCkjXO4EwzCrePi19F-22">
          <mxGeometry relative="1" as="geometry" />
        </mxCell>
        <mxCell id="mMuCkjXO4EwzCrePi19F-16" value="Username doesn&#39;t exist" style="edgeLabel;html=1;align=center;verticalAlign=middle;resizable=0;points=[];" vertex="1" connectable="0" parent="mMuCkjXO4EwzCrePi19F-15">
          <mxGeometry x="0.1059" y="-1" relative="1" as="geometry">
            <mxPoint x="12" y="-9" as="offset" />
          </mxGeometry>
        </mxCell>
        <mxCell id="mMuCkjXO4EwzCrePi19F-17" value="" style="edgeStyle=orthogonalEdgeStyle;rounded=0;orthogonalLoop=1;jettySize=auto;html=1;" edge="1" parent="1" source="mMuCkjXO4EwzCrePi19F-19" target="mMuCkjXO4EwzCrePi19F-25">
          <mxGeometry relative="1" as="geometry" />
        </mxCell>
        <mxCell id="mMuCkjXO4EwzCrePi19F-18" value="Username exist" style="edgeLabel;html=1;align=center;verticalAlign=middle;resizable=0;points=[];" vertex="1" connectable="0" parent="mMuCkjXO4EwzCrePi19F-17">
          <mxGeometry x="-0.2211" relative="1" as="geometry">
            <mxPoint as="offset" />
          </mxGeometry>
        </mxCell>
        <mxCell id="mMuCkjXO4EwzCrePi19F-19" value="q4" style="shape=ellipse;html=1;dashed=0;whiteSpace=wrap;aspect=fixed;perimeter=ellipsePerimeter;" vertex="1" parent="1">
          <mxGeometry x="415" y="470" width="60" height="60" as="geometry" />
        </mxCell>
        <mxCell id="mMuCkjXO4EwzCrePi19F-20" style="edgeStyle=orthogonalEdgeStyle;rounded=0;orthogonalLoop=1;jettySize=auto;html=1;exitX=0.5;exitY=0;exitDx=0;exitDy=0;entryX=0.5;entryY=1;entryDx=0;entryDy=0;" edge="1" parent="1" source="mMuCkjXO4EwzCrePi19F-22" target="mMuCkjXO4EwzCrePi19F-6">
          <mxGeometry relative="1" as="geometry" />
        </mxCell>
        <mxCell id="mMuCkjXO4EwzCrePi19F-21" value="Alert error message:&amp;nbsp;&lt;div&gt;Username or password incorrect&lt;/div&gt;" style="edgeLabel;html=1;align=center;verticalAlign=middle;resizable=0;points=[];" vertex="1" connectable="0" parent="mMuCkjXO4EwzCrePi19F-20">
          <mxGeometry x="-0.3137" relative="1" as="geometry">
            <mxPoint y="-17" as="offset" />
          </mxGeometry>
        </mxCell>
        <mxCell id="mMuCkjXO4EwzCrePi19F-22" value="q5" style="shape=ellipse;html=1;dashed=0;whiteSpace=wrap;aspect=fixed;perimeter=ellipsePerimeter;" vertex="1" parent="1">
          <mxGeometry x="225" y="470" width="60" height="60" as="geometry" />
        </mxCell>
        <mxCell id="mMuCkjXO4EwzCrePi19F-23" value="" style="edgeStyle=orthogonalEdgeStyle;rounded=0;orthogonalLoop=1;jettySize=auto;html=1;" edge="1" parent="1" source="mMuCkjXO4EwzCrePi19F-25" target="mMuCkjXO4EwzCrePi19F-30">
          <mxGeometry relative="1" as="geometry" />
        </mxCell>
        <mxCell id="mMuCkjXO4EwzCrePi19F-24" value="Verify the password" style="edgeLabel;html=1;align=center;verticalAlign=middle;resizable=0;points=[];" vertex="1" connectable="0" parent="mMuCkjXO4EwzCrePi19F-23">
          <mxGeometry x="-0.0264" y="-1" relative="1" as="geometry">
            <mxPoint as="offset" />
          </mxGeometry>
        </mxCell>
        <mxCell id="mMuCkjXO4EwzCrePi19F-25" value="q6" style="shape=ellipse;html=1;dashed=0;whiteSpace=wrap;aspect=fixed;perimeter=ellipsePerimeter;" vertex="1" parent="1">
          <mxGeometry x="415" y="570" width="60" height="60" as="geometry" />
        </mxCell>
        <mxCell id="mMuCkjXO4EwzCrePi19F-26" value="" style="edgeStyle=orthogonalEdgeStyle;rounded=0;orthogonalLoop=1;jettySize=auto;html=1;" edge="1" parent="1" source="mMuCkjXO4EwzCrePi19F-30" target="mMuCkjXO4EwzCrePi19F-32">
          <mxGeometry relative="1" as="geometry" />
        </mxCell>
        <mxCell id="mMuCkjXO4EwzCrePi19F-27" value="Password doesn&#39;t match" style="edgeLabel;html=1;align=center;verticalAlign=middle;resizable=0;points=[];" vertex="1" connectable="0" parent="mMuCkjXO4EwzCrePi19F-26">
          <mxGeometry x="0.0847" y="-1" relative="1" as="geometry">
            <mxPoint x="10" y="-9" as="offset" />
          </mxGeometry>
        </mxCell>
        <mxCell id="mMuCkjXO4EwzCrePi19F-28" value="" style="edgeStyle=orthogonalEdgeStyle;rounded=0;orthogonalLoop=1;jettySize=auto;html=1;" edge="1" parent="1" source="mMuCkjXO4EwzCrePi19F-30" target="mMuCkjXO4EwzCrePi19F-37">
          <mxGeometry relative="1" as="geometry" />
        </mxCell>
        <mxCell id="mMuCkjXO4EwzCrePi19F-29" value="Examine Remember me checkbox" style="edgeLabel;html=1;align=center;verticalAlign=middle;resizable=0;points=[];" vertex="1" connectable="0" parent="mMuCkjXO4EwzCrePi19F-28">
          <mxGeometry x="-0.15" y="1" relative="1" as="geometry">
            <mxPoint x="-1" y="-1" as="offset" />
          </mxGeometry>
        </mxCell>
        <mxCell id="mMuCkjXO4EwzCrePi19F-30" value="q7" style="shape=ellipse;html=1;dashed=0;whiteSpace=wrap;aspect=fixed;perimeter=ellipsePerimeter;" vertex="1" parent="1">
          <mxGeometry x="415" y="670" width="60" height="60" as="geometry" />
        </mxCell>
        <mxCell id="mMuCkjXO4EwzCrePi19F-31" style="edgeStyle=orthogonalEdgeStyle;rounded=0;orthogonalLoop=1;jettySize=auto;html=1;exitX=0.5;exitY=0;exitDx=0;exitDy=0;entryX=0.5;entryY=1;entryDx=0;entryDy=0;" edge="1" parent="1" source="mMuCkjXO4EwzCrePi19F-32" target="mMuCkjXO4EwzCrePi19F-22">
          <mxGeometry relative="1" as="geometry" />
        </mxCell>
        <mxCell id="mMuCkjXO4EwzCrePi19F-32" value="q8" style="shape=ellipse;html=1;dashed=0;whiteSpace=wrap;aspect=fixed;perimeter=ellipsePerimeter;" vertex="1" parent="1">
          <mxGeometry x="225" y="670" width="60" height="60" as="geometry" />
        </mxCell>
        <mxCell id="mMuCkjXO4EwzCrePi19F-33" value="" style="edgeStyle=orthogonalEdgeStyle;rounded=0;orthogonalLoop=1;jettySize=auto;html=1;" edge="1" parent="1" source="mMuCkjXO4EwzCrePi19F-37" target="mMuCkjXO4EwzCrePi19F-39">
          <mxGeometry relative="1" as="geometry" />
        </mxCell>
        <mxCell id="mMuCkjXO4EwzCrePi19F-34" value="Checked state" style="edgeLabel;html=1;align=center;verticalAlign=middle;resizable=0;points=[];" vertex="1" connectable="0" parent="mMuCkjXO4EwzCrePi19F-33">
          <mxGeometry x="-0.1356" y="1" relative="1" as="geometry">
            <mxPoint x="-1" y="-11" as="offset" />
          </mxGeometry>
        </mxCell>
        <mxCell id="mMuCkjXO4EwzCrePi19F-35" value="" style="edgeStyle=orthogonalEdgeStyle;rounded=0;orthogonalLoop=1;jettySize=auto;html=1;" edge="1" parent="1" source="mMuCkjXO4EwzCrePi19F-37" target="mMuCkjXO4EwzCrePi19F-45">
          <mxGeometry relative="1" as="geometry" />
        </mxCell>
        <mxCell id="mMuCkjXO4EwzCrePi19F-36" value="Unchecked state" style="edgeLabel;html=1;align=center;verticalAlign=middle;resizable=0;points=[];" vertex="1" connectable="0" parent="mMuCkjXO4EwzCrePi19F-35">
          <mxGeometry x="-0.3747" relative="1" as="geometry">
            <mxPoint x="15" y="-10" as="offset" />
          </mxGeometry>
        </mxCell>
        <mxCell id="mMuCkjXO4EwzCrePi19F-37" value="q9" style="shape=ellipse;html=1;dashed=0;whiteSpace=wrap;aspect=fixed;perimeter=ellipsePerimeter;" vertex="1" parent="1">
          <mxGeometry x="415" y="780" width="60" height="60" as="geometry" />
        </mxCell>
        <mxCell id="mMuCkjXO4EwzCrePi19F-38" value="Set &quot;SESSION_COOKIE_AGE&quot; 1209600" style="edgeStyle=orthogonalEdgeStyle;rounded=0;orthogonalLoop=1;jettySize=auto;html=1;" edge="1" parent="1" source="mMuCkjXO4EwzCrePi19F-39" target="mMuCkjXO4EwzCrePi19F-42">
          <mxGeometry x="-0.1111" relative="1" as="geometry">
            <mxPoint as="offset" />
          </mxGeometry>
        </mxCell>
        <mxCell id="mMuCkjXO4EwzCrePi19F-39" value="q10" style="shape=ellipse;html=1;dashed=0;whiteSpace=wrap;aspect=fixed;perimeter=ellipsePerimeter;" vertex="1" parent="1">
          <mxGeometry x="225" y="780" width="60" height="60" as="geometry" />
        </mxCell>
        <mxCell id="mMuCkjXO4EwzCrePi19F-40" value="" style="edgeStyle=orthogonalEdgeStyle;rounded=0;orthogonalLoop=1;jettySize=auto;html=1;" edge="1" parent="1" source="mMuCkjXO4EwzCrePi19F-42" target="mMuCkjXO4EwzCrePi19F-51">
          <mxGeometry relative="1" as="geometry" />
        </mxCell>
        <mxCell id="mMuCkjXO4EwzCrePi19F-41" value="Get the user job attribute" style="edgeLabel;html=1;align=center;verticalAlign=middle;resizable=0;points=[];" vertex="1" connectable="0" parent="mMuCkjXO4EwzCrePi19F-40">
          <mxGeometry x="-0.0706" relative="1" as="geometry">
            <mxPoint y="-10" as="offset" />
          </mxGeometry>
        </mxCell>
        <mxCell id="mMuCkjXO4EwzCrePi19F-42" value="q11" style="shape=ellipse;html=1;dashed=0;whiteSpace=wrap;aspect=fixed;perimeter=ellipsePerimeter;" vertex="1" parent="1">
          <mxGeometry x="225" y="900" width="60" height="60" as="geometry" />
        </mxCell>
        <mxCell id="mMuCkjXO4EwzCrePi19F-43" value="" style="edgeStyle=orthogonalEdgeStyle;rounded=0;orthogonalLoop=1;jettySize=auto;html=1;" edge="1" parent="1" source="mMuCkjXO4EwzCrePi19F-45" target="mMuCkjXO4EwzCrePi19F-48">
          <mxGeometry relative="1" as="geometry" />
        </mxCell>
        <mxCell id="mMuCkjXO4EwzCrePi19F-44" value="Set &quot;SESSION_COOKIE_AGE&quot; 0" style="edgeLabel;html=1;align=center;verticalAlign=middle;resizable=0;points=[];" vertex="1" connectable="0" parent="mMuCkjXO4EwzCrePi19F-43">
          <mxGeometry x="-0.2046" y="-1" relative="1" as="geometry">
            <mxPoint x="1" as="offset" />
          </mxGeometry>
        </mxCell>
        <mxCell id="mMuCkjXO4EwzCrePi19F-45" value="q12" style="shape=ellipse;html=1;dashed=0;whiteSpace=wrap;aspect=fixed;perimeter=ellipsePerimeter;" vertex="1" parent="1">
          <mxGeometry x="605" y="780" width="60" height="60" as="geometry" />
        </mxCell>
        <mxCell id="mMuCkjXO4EwzCrePi19F-46" style="edgeStyle=orthogonalEdgeStyle;rounded=0;orthogonalLoop=1;jettySize=auto;html=1;exitX=0;exitY=0.5;exitDx=0;exitDy=0;entryX=1;entryY=0.5;entryDx=0;entryDy=0;" edge="1" parent="1" source="mMuCkjXO4EwzCrePi19F-48" target="mMuCkjXO4EwzCrePi19F-51">
          <mxGeometry relative="1" as="geometry" />
        </mxCell>
        <mxCell id="mMuCkjXO4EwzCrePi19F-47" value="Get the user job attribute" style="edgeLabel;html=1;align=center;verticalAlign=middle;resizable=0;points=[];" vertex="1" connectable="0" parent="mMuCkjXO4EwzCrePi19F-46">
          <mxGeometry x="-0.0727" relative="1" as="geometry">
            <mxPoint y="-10" as="offset" />
          </mxGeometry>
        </mxCell>
        <mxCell id="mMuCkjXO4EwzCrePi19F-48" value="q13" style="shape=ellipse;html=1;dashed=0;whiteSpace=wrap;aspect=fixed;perimeter=ellipsePerimeter;" vertex="1" parent="1">
          <mxGeometry x="605" y="900" width="60" height="60" as="geometry" />
        </mxCell>
        <mxCell id="mMuCkjXO4EwzCrePi19F-49" value="" style="edgeStyle=orthogonalEdgeStyle;rounded=0;orthogonalLoop=1;jettySize=auto;html=1;" edge="1" parent="1" source="mMuCkjXO4EwzCrePi19F-51" target="mMuCkjXO4EwzCrePi19F-54">
          <mxGeometry relative="1" as="geometry" />
        </mxCell>
        <mxCell id="mMuCkjXO4EwzCrePi19F-50" value="Set &quot;user_job&quot; session" style="edgeLabel;html=1;align=center;verticalAlign=middle;resizable=0;points=[];" vertex="1" connectable="0" parent="mMuCkjXO4EwzCrePi19F-49">
          <mxGeometry x="-0.0897" y="-2" relative="1" as="geometry">
            <mxPoint as="offset" />
          </mxGeometry>
        </mxCell>
        <mxCell id="mMuCkjXO4EwzCrePi19F-51" value="q14" style="shape=ellipse;html=1;dashed=0;whiteSpace=wrap;aspect=fixed;perimeter=ellipsePerimeter;" vertex="1" parent="1">
          <mxGeometry x="415" y="900" width="60" height="60" as="geometry" />
        </mxCell>
        <mxCell id="mMuCkjXO4EwzCrePi19F-52" value="" style="edgeStyle=orthogonalEdgeStyle;rounded=0;orthogonalLoop=1;jettySize=auto;html=1;entryX=0;entryY=0.5;entryDx=0;entryDy=0;" edge="1" parent="1" source="mMuCkjXO4EwzCrePi19F-54" target="mMuCkjXO4EwzCrePi19F-55">
          <mxGeometry relative="1" as="geometry">
            <mxPoint x="555" y="1040" as="targetPoint" />
          </mxGeometry>
        </mxCell>
        <mxCell id="mMuCkjXO4EwzCrePi19F-53" value="Go to management&amp;nbsp;&lt;div&gt;platform webpage&lt;/div&gt;" style="edgeLabel;html=1;align=center;verticalAlign=middle;resizable=0;points=[];" vertex="1" connectable="0" parent="mMuCkjXO4EwzCrePi19F-52">
          <mxGeometry x="-0.1572" relative="1" as="geometry">
            <mxPoint x="10" y="-20" as="offset" />
          </mxGeometry>
        </mxCell>
        <mxCell id="mMuCkjXO4EwzCrePi19F-54" value="q15" style="shape=ellipse;html=1;dashed=0;whiteSpace=wrap;aspect=fixed;perimeter=ellipsePerimeter;" vertex="1" parent="1">
          <mxGeometry x="415" y="1010" width="60" height="60" as="geometry" />
        </mxCell>
        <mxCell id="mMuCkjXO4EwzCrePi19F-55" value="q16" style="ellipse;shape=doubleEllipse;html=1;dashed=0;whiteSpace=wrap;aspect=fixed;" vertex="1" parent="1">
          <mxGeometry x="605" y="1010" width="60" height="60" as="geometry" />
        </mxCell>
      </root>
    </mxGraphModel>
  </diagram>
</mxfile>
